HIERARCHY
ROOT Hips
{
	OFFSET -14.64140 90.27770 -84.91600
	CHANNELS 6 Xposition Yposition Zposition Zrotation Xrotation Yrotation
	JOINT Spine
	{
		OFFSET 0.00000 13.20850 -1.60436
		CHANNELS 3 Zrotation Xrotation Yrotation
		JOINT Spine1
		{
			OFFSET 0.00000 8.61716 0.00000
			CHANNELS 3 Zrotation Xrotation Yrotation
			JOINT Spine2
			{
				OFFSET 0.00000 8.61717 0.00000
				CHANNELS 3 Zrotation Xrotation Yrotation
				JOINT Spine3
				{
					OFFSET 0.00000 8.61717 0.00000
					CHANNELS 3 Zrotation Xrotation Yrotation
					JOINT Neck
					{
						OFFSET 0.00000 11.07920 1.10792
						CHANNELS 3 Zrotation Xrotation Yrotation
						JOINT Neck1
						{
							OFFSET 0.00000 7.08032 0.00000
							CHANNELS 3 Zrotation Xrotation Yrotation
							JOINT Head
							{
								OFFSET 0.00000 7.08031 0.00000
								CHANNELS 3 Zrotation Xrotation Yrotation
								End site
								{
									OFFSET 0.00000 0.00000 0.00000
								}
							}
						}
					}
					JOINT RightShoulder
					{
						OFFSET -0.01000 7.91373 5.19711
						CHANNELS 3 Zrotation Xrotation Yrotation
						JOINT RightArm
						{
							OFFSET -18.41580 0.00000 0.00000
							CHANNELS 3 Zrotation Xrotation Yrotation
							JOINT RightForeArm
							{
								OFFSET -29.11090 0.00000 0.00000
								CHANNELS 3 Zrotation Xrotation Yrotation
								JOINT RightHand
								{
									OFFSET -24.65040 0.00000 0.00000
									CHANNELS 3 Zrotation Xrotation Yrotation
									JOINT RightHandThumb1
									{
										OFFSET -5.35114 -0.85590 3.97906
										CHANNELS 3 Zrotation Xrotation Yrotation
										JOINT RightHandThumb2
										{
											OFFSET -4.52789 0.00000 0.00000
											CHANNELS 3 Zrotation Xrotation Yrotation
											JOINT RightHandThumb3
											{
												OFFSET -2.46976 0.00000 0.00000
												CHANNELS 3 Zrotation Xrotation Yrotation
												End site
												{
													OFFSET 0.00000 0.00000 0.00000
												}
											}
										}
									}
									JOINT RightHandIndex1
									{
										OFFSET -14.26970 0.00000 2.88139
										CHANNELS 3 Zrotation Xrotation Yrotation
										JOINT RightHandIndex2
										{
											OFFSET -5.48836 0.00000 0.00000
											CHANNELS 3 Zrotation Xrotation Yrotation
											JOINT RightHandIndex3
											{
												OFFSET -3.01859 0.00000 0.00000
												CHANNELS 3 Zrotation Xrotation Yrotation
												End site
												{
													OFFSET 0.00000 0.00000 0.00000
												}
											}
										}
									}
									JOINT RightHandMiddle1
									{
										OFFSET -14.26970 0.00000 -0.09147
										CHANNELS 3 Zrotation Xrotation Yrotation
										JOINT RightHandMiddle2
										{
											OFFSET -6.17441 0.00000 0.00000
											CHANNELS 3 Zrotation Xrotation Yrotation
											JOINT RightHandMiddle3
											{
												OFFSET -3.56743 0.00000 0.00000
												CHANNELS 3 Zrotation Xrotation Yrotation
												End site
												{
													OFFSET 0.00000 0.00000 0.00000
												}
											}
										}
									}
									JOINT RightHandRing1
									{
										OFFSET -12.69180 0.00000 -3.06433
										CHANNELS 3 Zrotation Xrotation Yrotation
										JOINT RightHandRing2
										{
											OFFSET -5.62556 0.00000 0.00000
											CHANNELS 3 Zrotation Xrotation Yrotation
											JOINT RightHandRing3
											{
												OFFSET -3.56744 0.00000 0.00000
												CHANNELS 3 Zrotation Xrotation Yrotation
												End site
												{
													OFFSET 0.00000 0.00000 0.00000
												}
											}
										}
									}
									JOINT RightHandPinky1
									{
										OFFSET -11.11390 0.00000 -6.03719
										CHANNELS 3 Zrotation Xrotation Yrotation
										JOINT RightHandPinky2
										{
											OFFSET -4.52789 0.00000 0.00000
											CHANNELS 3 Zrotation Xrotation Yrotation
											JOINT RightHandPinky3
											{
												OFFSET -2.46976 0.00000 0.00000
												CHANNELS 3 Zrotation Xrotation Yrotation
												End site
												{
													OFFSET 0.00000 0.00000 0.00000
												}
											}
										}
									}
								}
							}
						}
					}
					JOINT LeftShoulder
					{
						OFFSET 0.01000 7.91373 5.19711
						CHANNELS 3 Zrotation Xrotation Yrotation
						JOINT LeftArm
						{
							OFFSET 18.41580 0.00000 0.00000
							CHANNELS 3 Zrotation Xrotation Yrotation
							JOINT LeftForeArm
							{
								OFFSET 29.11090 0.00000 0.00000
								CHANNELS 3 Zrotation Xrotation Yrotation
								JOINT LeftHand
								{
									OFFSET 24.65040 0.00000 0.00000
									CHANNELS 3 Zrotation Xrotation Yrotation
									JOINT LeftHandThumb1
									{
										OFFSET 5.35114 -0.85590 3.97906
										CHANNELS 3 Zrotation Xrotation Yrotation
										JOINT LeftHandThumb2
										{
											OFFSET 4.52789 0.00000 0.00000
											CHANNELS 3 Zrotation Xrotation Yrotation
											JOINT LeftHandThumb3
											{
												OFFSET 2.46977 0.00000 0.00000
												CHANNELS 3 Zrotation Xrotation Yrotation
												End site
												{
													OFFSET 0.00000 0.00000 0.00000
												}
											}
										}
									}
									JOINT LeftHandIndex1
									{
										OFFSET 14.26970 0.00000 2.88139
										CHANNELS 3 Zrotation Xrotation Yrotation
										JOINT LeftHandIndex2
										{
											OFFSET 5.48836 0.00000 0.00000
											CHANNELS 3 Zrotation Xrotation Yrotation
											JOINT LeftHandIndex3
											{
												OFFSET 3.01859 0.00000 0.00000
												CHANNELS 3 Zrotation Xrotation Yrotation
												End site
												{
													OFFSET 0.00000 0.00000 0.00000
												}
											}
										}
									}
									JOINT LeftHandMiddle1
									{
										OFFSET 14.26970 0.00000 -0.09147
										CHANNELS 3 Zrotation Xrotation Yrotation
										JOINT LeftHandMiddle2
										{
											OFFSET 6.17440 0.00000 0.00000
											CHANNELS 3 Zrotation Xrotation Yrotation
											JOINT LeftHandMiddle3
											{
												OFFSET 3.56744 0.00000 0.00000
												CHANNELS 3 Zrotation Xrotation Yrotation
												End site
												{
													OFFSET 0.00000 0.00000 0.00000
												}
											}
										}
									}
									JOINT LeftHandRing1
									{
										OFFSET 12.69180 0.00000 -3.06433
										CHANNELS 3 Zrotation Xrotation Yrotation
										JOINT LeftHandRing2
										{
											OFFSET 5.62556 0.00000 0.00000
											CHANNELS 3 Zrotation Xrotation Yrotation
											JOINT LeftHandRing3
											{
												OFFSET 3.56744 0.00000 0.00000
												CHANNELS 3 Zrotation Xrotation Yrotation
												End site
												{
													OFFSET 0.00000 0.00000 0.00000
												}
											}
										}
									}
									JOINT LeftHandPinky1
									{
										OFFSET 11.11390 0.00000 -6.03719
										CHANNELS 3 Zrotation Xrotation Yrotation
										JOINT LeftHandPinky2
										{
											OFFSET 4.52789 0.00000 0.00000
											CHANNELS 3 Zrotation Xrotation Yrotation
											JOINT LeftHandPinky3
											{
												OFFSET 2.46976 0.00000 0.00000
												CHANNELS 3 Zrotation Xrotation Yrotation
												End site
												{
													OFFSET 0.00000 0.00000 0.00000
												}
											}
										}
									}
								}
							}
						}
					}
					JOINT pCube4
					{
						OFFSET 0.00000 10.91090 1.10792
						CHANNELS 3 Zrotation Xrotation Yrotation
						End site
						{
							OFFSET 0.00000 0.00000 0.00000
						}
					}
				}
			}
		}
	}
	JOINT RightUpLeg
	{
		OFFSET -9.98441 0.00000 0.00000
		CHANNELS 3 Zrotation Xrotation Yrotation
		JOINT RightLeg
		{
			OFFSET 0.00000 -42.11790 0.00000
			CHANNELS 3 Zrotation Xrotation Yrotation
			JOINT RightFoot
			{
				OFFSET 0.00000 -45.00020 -0.00001
				CHANNELS 3 Zrotation Xrotation Yrotation
				JOINT RightForeFoot
				{
					OFFSET 0.00000 -3.74820 0.00000
					CHANNELS 3 Zrotation Xrotation Yrotation
					JOINT RightToeBase
					{
						OFFSET 0.00000 0.06325 14.43120
						CHANNELS 3 Zrotation Xrotation Yrotation
						End site
						{
							OFFSET 0.00000 0.00000 0.00000
						}
					}
				}
			}
		}
	}
	JOINT LeftUpLeg
	{
		OFFSET 9.98441 0.00000 0.00000
		CHANNELS 3 Zrotation Xrotation Yrotation
		JOINT LeftLeg
		{
			OFFSET 0.00000 -42.11800 0.00000
			CHANNELS 3 Zrotation Xrotation Yrotation
			JOINT LeftFoot
			{
				OFFSET 0.00000 -45.00070 0.00000
				CHANNELS 3 Zrotation Xrotation Yrotation
				JOINT LeftForeFoot
				{
					OFFSET 0.00000 -3.74824 0.00000
					CHANNELS 3 Zrotation Xrotation Yrotation
					JOINT LeftToeBase
					{
						OFFSET 0.00000 0.06325 14.43110
						CHANNELS 3 Zrotation Xrotation Yrotation
						End site
						{
							OFFSET 0.00000 0.00000 0.00000
						}
					}
				}
			}
		}
	}
}
MOTION
Frames: 4
Frame Time: 0.050000
-0.01931696969529359 -0.019343631918053498 -0.022348799835003322 -0.037490777747722116 -0.01576925248619487 -0.009651085079390422 -4.635036845674732 7.992308061853619 -0.5725593976826397 -0.7250711274276791 2.922721112509619 0.3998809783414926 -1.041258201728056 0.21361411764461744 -1.2983661986183845 -0.6930871030111714 0.30451189374394677 -1.0164066768602549 -0.13506951053191638 7.434921850392311 0.11871503557305917 -0.15056166880368138 -1.3310377954930368 -3.1327974561501204 -0.07229859570225884 -15.384273980836925 -0.17511134641025128 4.129379969662013 -0.110137759370182 -9.830358235624688 58.677293600591895 -12.81430409278214 25.787831015208358 29.318107591469246 9.250532331218883 101.44534478836412 24.828259608610594 -0.07358201887726828 -10.729084330478518 4.55919019987033 -0.14162668613686635 -1.5905421895783924 0.01714948312233162 -0.02254419437211043 -56.213424741722676 -0.008655217505288353 -0.03835496671234803 -56.23001718042091 -38.76010955373579 -0.0014960413833989797 -0.02267061639313541 -0.026324365412439946 -0.026815478814324337 -0.029231567156676595 -0.021965435247086804 -0.04056585350165714 -0.038712184358835285 -36.73194099505392 0.04942477184315924 0.04088034744218628 -0.019187476997925775 0.03659577815087585 -0.004242075384699954 -0.0005215342112156683 -0.024109755849349178 0.02909053104720616 -19.73635122528845 -0.03516310980564152 -0.010984853202187974 -0.02460734135728202 0.023927524001180568 0.04789894098033535 -0.009774182227678892 -0.04697972756404311 0.03454929972687823 24.01575347895968 -0.012853311072037433 0.007069626887445253 28.888821379656708 0.019809933213908722 0.03751998759698867 28.89199883367464 0.03242122098385826 -0.004769326862755183 -3.4638821872016896 -0.05850823071594743 8.527806559441004 -60.62203279244431 18.695992547358205 -20.599434381742448 -44.72258383930583 9.6700423824251 -100.27452377720034 -12.61247802620171 2.815210939450127 -1.777441938172244 -0.4627169641687502 0.11363109554394098 -8.150844532123214 0.03136970225142971 -0.017721785537608167 44.54932179948966 -0.013155043583761948 -0.04961040327957552 44.53638223264689 12.447534430240294 0.027953051249273768 -0.043754396442956915 0.020069291915981467 0.03665244885444185 0.023411500831566304 -0.04268804595261709 -0.0055567138846462786 0.03359770154487165 11.110472777648196 -0.024991911752875674 0.03404764872795275 -0.04381056922379869 0.0476010084812984 -0.008106994997728358 0.011970936973971204 0.01600815194597046 0.039138187370592534 4.777136764053643 -0.005466091294343573 0.037297531627885516 0.031114250018278316 -0.007627183237548708 0.049507750410185486 0.03232710384341004 0.039243012802221144 0.01180159957709904 -5.598457282201659 -0.0024078813142008656 0.023374234257266206 -6.701546050143303 -0.008138167433543137 0.011451965596561217 -6.69559902617702 -0.011222100868652033 0.027593195739396358 -0.04597341433521984 0.04238616371182076 -0.012253573067683538 8.093045793872541 3.4592761585285206 -19.22726888052643 0.023287611104508634 10.431110786141181 0.01428656782408756 -5.62068101439515 -15.670647150420226 3.237118771261988 0.03255113323284815 -0.027296805598896984 0.009620305385849586 -0.024599651364563786 4.704981588895709 -0.03288338177221476 12.479555604856207 -8.211678736366686 6.857546994858006 -0.01959334538910273 46.33610392383695 0.03845103970383529 -4.309538094625963 -14.714060220235353 -3.799699941677322 0.017500070084916747 0.03362726491721844 0.03641734549739027 0.018616912027033816 -10.746168726616258 0.047038725629515186 
0.005460101757882863 0.003433561196815171 -0.019375033793140928 0.0043511089559741525 0.011596781060250744 0.007799057273172454 -4.534156751022759 7.934665908537532 -0.5177243454881717 -0.6662965712745301 2.955989881786007 0.39852253594409204 -1.003743414613737 0.24499215307260447 -1.5166214471688073 -0.6188531130073875 0.27122532465684485 -1.0667758783872552 -0.07309008073246832 7.600705867617451 -0.10085955302682748 -0.08326349313587236 -1.2289369823430853 -3.448483875748566 -0.001907797532924943 -15.250945125260495 -0.25662817634031515 3.840182379557897 -0.09997508740065512 -9.759961701325441 56.41091243772979 -13.737505014136 28.137818059112206 29.78411823645923 9.739819421271424 100.65818073001451 25.218625134168818 -0.07731951839902473 -11.088690132496792 4.542397855202607 -0.15420992383717588 -1.5528029433557766 -0.03948270035747784 -0.012160485977103485 -56.250880644073405 0.01075386961243016 -0.04506428366494178 -56.212629413334476 -38.762381420622226 -0.049503150117293115 -0.0035498547202621575 0.0020647609772264613 -0.004036494097995608 -0.02469346770391338 0.02615695560508644 -0.0009143387408297985 0.01636011439212783 -36.74289442587543 0.0003004308059406596 -0.013441450463781493 -0.012315641726486536 0.011323693352908532 0.029213715349097436 -0.014954970532462595 -0.02083795886552407 -0.019926488553481628 -19.791319673457778 -0.005137036542133469 -0.0030988117017329577 0.010231208071914074 0.036633386838009124 0.045914104913557956 0.0026073938115654238 0.01563960349738505 -0.005159787509943013 24.068467804712135 0.013608190505328853 -0.026661751966441584 28.883053767945515 -0.04508642622599901 -0.012793594176354764 28.8575123180032 -0.04526327679778509 -0.021541811612683984 -3.311607932893301 -0.06620855744208169 8.309061023383087 -58.70433867569173 19.962427767333686 -22.95849685585034 -41.84372052358731 9.22200729086224 -100.06115455463035 -13.240979950598742 2.615104628530723 -1.8446355519252948 -0.45724422642538265 0.03734667844419419 -8.075528646656993 -0.02578404677623937 -0.0157542637905895 44.59110537801247 0.008490388356458111 -0.006401164217088035 44.55212746304745 12.49030405402362 -0.00547576388762811 -0.009451347536815573 -0.024937678256415543 -0.007690681154344993 0.008803713380490956 -0.006056280693997105 -0.02955836717309679 0.03607655870416931 11.108847502605897 0.014378366787475224 -0.04367052946755639 -0.008906551025920795 -0.006562792138652194 -0.02783038978029634 -0.03633267315808519 -0.026354746325235948 0.010427446029051024 4.810587103219667 -0.03680404758669501 -0.028356610211378933 0.020903618691739692 -0.023210027236710035 0.01655962539144214 0.0031246729612531437 -0.015234243006032768 0.038767553885308295 -5.6335242554992 0.014739496988103234 0.01615646189230103 -6.689789233642323 -0.006222170255580199 0.003237076480335639 -6.709254489475398 0.009238187551724506 -0.004259211082425154 0.03740432547335118 -0.0028202833987074558 0.020804292558344945 8.001066396262459 3.4588161176851075 -19.235629299831437 0.01361103003812163 10.423194877395245 0.03190635527446123 -5.577135923540977 -15.63863779219082 3.224651450584947 0.008895146446574407 -0.016924975429684554 0.014243706826401947 0.04654675974773556 4.664994962182469 -0.002156316237728687 12.445387818883248 -8.262357579036458 6.927575950579736 -0.0001949823178551661 46.34886921225524 -0.019363516786692125 -4.370437828109105 -14.711491188575229 -3.827444914777932 -0.0006819808729277865 -0.033867132297681464 0.01944111001438637 0.011143290211331048 -10.738226766140395 -0.02447032577682523 
-0.0016498256149675861 -0.006940900401553287 -0.04098494079643811 0.006152011723337843 -0.005906985424668318 -0.018469037793216833 -4.3828653149749135 7.774147766471332 -0.563747023946556 -0.7156675235381799 2.950860962784852 0.4194145176985105 -0.9744226112386231 0.17875857574317633 -1.6548672744461412 -0.46487706671364637 0.2391933860397929 -1.1173395075632082 0.07055464407247765 7.700196782152648 -0.2707239784567654 -0.08295716605497189 -1.1590503505591045 -3.6819447537155665 0.017071704133343465 -15.159416507496502 -0.19318928868404392 3.5729878229892917 -0.004562733918774148 -9.65294211286922 54.35877109434037 -14.612371800576481 30.466723936843035 30.284165371614044 10.169426980135096 99.33896601852084 25.639897441093485 -0.0007340474312670237 -11.492435715919356 4.484375995123836 -0.15813822290307616 -1.6154209335888345 -0.023344546733639327 0.03519664755836812 -56.229772931332334 0.020969614601058725 -0.040105491293946444 -56.217664334249584 -38.75028638776174 -0.008112536179648485 0.03169131254570305 -0.024373539110188167 0.04742463342240402 -0.003024417888525075 0.016730293770355675 0.016666852285121166 -0.02513772316201568 -36.72930933873114 0.012721851427110365 -0.007586039533795678 -0.01957787616559732 -0.01563307917558303 -0.02639481064117694 -0.006960182243847755 -0.036652409740303 0.03916521320369473 -19.77223811761225 -0.021569007552154476 -0.020004309452332128 -0.028132629342955004 0.03084551340911334 -0.017379029119745162 0.0034376425020994344 -0.02921627326056248 -0.030123440840349854 24.05446346717451 0.016932821491594495 -0.03984595495921434 28.872342841284222 0.001769459935806304 -0.04274967915743276 28.821253863884163 0.041000558927048764 -0.03377542397684004 -2.99718255140141 -0.013352750655674248 8.03577833221125 -56.46191537531037 20.963426206358992 -25.69990330704726 -37.32798963226419 8.204047812933412 -99.10371008456312 -14.04795421118399 2.145702154091352 -1.8231508722552123 -0.4531944601396258 0.03597978393341899 -8.165523198622317 -0.028567315405819117 -0.0034967280978932536 44.55671280740224 -0.023365626795893376 0.013083161195346384 44.61425216504224 12.494746818854336 0.047882065102139146 -0.030599754072929787 0.009299139116492992 -0.016894725886112166 0.02279437158263808 0.036468074819891456 -0.02799796947596675 -0.04058319295549996 11.137005076489277 -0.013817089167582524 0.04517482565862722 -0.022389355087499094 -0.005245645944118232 0.023126754918474754 -0.02259038313504718 -0.027862546318132404 -0.01942321696989513 4.736872157440389 -0.030632527592603882 -0.0029813683240400043 -0.01749757058334093 0.04434661348781042 0.011710229753415057 0.02058302517665493 -0.008314801621868075 -0.040573832004910146 -5.634061496008781 -0.04442925963445648 -0.003647502110477108 -6.732051853986388 0.03031178654555897 0.022623509680905873 -6.748945314301232 0.030992734672254548 -0.04990697399599893 0.018775429635857484 -0.011710212697073067 -0.03706667899038227 8.027050494133427 3.509845169777024 -19.258223134345204 0.02852118608903468 10.369640679802332 0.022900475417892564 -5.666795159655427 -15.671576026649742 3.174661910022326 -0.0452717942330045 0.0242423140944464 -0.01049495521974791 0.04250584851804203 4.66115829222547 -0.033932527471427346 12.44046400140538 -8.237801867693367 6.896034969608527 0.010757251869145485 46.38817958873062 -0.0450922681706127 -4.33015234255825 -14.735228504348663 -3.7972586014645233 0.04055439273931655 0.030887406334162194 -0.00702233166278332 0.03458321361801465 -10.755654477432289 0.01784576827082367 
0.008256854260200942 -0.046357805615034636 -0.033878317330411134 0.0436910450032147 0.007845793118189053 -0.00310434179548559 -4.199260344446967 7.731031885676866 -0.529424087407518 -0.6987770957170302 2.9782657041767204 0.40681001097612257 -1.0266814090102216 0.11715289890765421 -1.8277796958253467 -0.43549522003003455 0.2488805266501622 -1.0952503764470256 0.049854693252362275 7.8218105511506995 -0.47375816508515134 -0.05287606075128277 -1.1511752057300773 -3.870499020169897 0.044662974532262804 -15.088657987483709 -0.2760587681090596 3.2432993923032107 0.12148539861913879 -9.650346098969523 53.224801153810894 -15.020981265295465 32.35687833190314 30.416371289406143 10.540875972046967 97.2973433680645 25.90135688346142 -0.027529702674434126 -11.743028442121753 4.563058260060186 -0.13752519067933192 -1.59935489837196 -0.042292735744528305 -0.03625720471357971 -56.26843195322757 0.005041028784495427 0.010071070324807514 -56.208178801169836 -38.72693894999653 -0.0022498538047296727 0.03758824486583425 -0.028863149524285158 0.021806691445128007 -0.04047212454662653 0.007668141706480411 -0.01734819895115845 -0.0266715443940048 -36.68323266681793 -0.008790400412833152 -0.002429483803217184 -0.029768146169770648 -0.010514805897393311 0.02524261728534959 -0.02406636572689825 -0.023857911731610292 0.04235251449250431 -19.80257983903409 -0.038522940081638604 0.045547129348195194 -0.037552702877437685 0.004270580194834697 -0.011699904158942294 -0.014899391805456689 -0.025575289708174315 0.03692679042717054 24.083022727657156 -0.02390185101773464 0.030284540909120125 28.88254401199501 -0.019578920319498774 -0.04213781469464452 28.87627268311471 -0.022883376798817953 -0.01830520709063305 -2.6318884203976896 0.09572293208307342 7.827962289581975 -54.647820166990904 21.648546863078415 -28.117636121737615 -33.11740851753875 7.1388278474782565 -97.7857443099189 -14.81791245148409 1.6635933765658741 -1.6310275456719399 -0.4989103877996919 0.06540372158252787 -8.131579817939988 0.008540797839073765 -0.024280699303095402 44.61378763716403 0.043520578223703844 0.026904849899021283 44.564211123479375 12.450912468703372 -0.04031141620276218 0.043697753991030555 -0.03671985116506169 0.012819253068859735 -0.013688726025113505 -0.029276726338421884 0.045986624039845055 0.03255182388224248 11.12054137040967 -0.012160248486660311 -0.016501438628738006 0.016157143739588566 -0.015203221309339916 -0.0035080941107445323 -0.03633478455857323 0.006873345466664205 -0.04423179077608383 4.766555165723586 -0.041983386103470195 -0.009906081838698365 0.04045542124038126 -0.0153314692824502 0.029984580814528393 -0.017079068777587733 0.047688777150966886 0.03779303398620735 -5.569970715019642 -0.00047000693399213865 0.007033726095989815 -6.6747744707889245 0.010930590460899257 -0.0468345825950052 -6.704981266680683 0.03591746246727877 -0.027542185199564403 0.045732581407629716 -0.017880650225233392 -0.033974702841531375 8.019266658167636 3.4751686854921697 -19.2013893596072 0.024963264517037242 10.376136399299812 0.010792531232532633 -5.589936593612225 -15.636847466728788 3.232458294461209 -0.021687129987264978 0.0061080750489086845 -0.04474177415696269 0.011762716367815465 4.668565578727074 0.008780679761960446 12.435519665882095 -8.266438665914414 6.875685574932234 -0.021417218215542613 46.36622074004913 0.005686032001660731 -4.295347513442027 -14.780158331391137 -3.8661952381960023 0.019106248182230324 -0.026031514713769 -0.029662676051991292 0.04946835684847076 -10.789135164152892 0.03343536168128788 
